<mxfile host="app.diagrams.net" modified="2024-01-29T21:20:29.802Z" agent="Mozilla/5.0 (Windows NT 10.0; Win64; x64) AppleWebKit/537.36 (KHTML, like Gecko) Chrome/120.0.0.0 Safari/537.36" etag="nZH5bNSPXiMyDZkoW6fR" version="23.0.2" type="device">
  <diagram name="Page-1" id="uPmsQ2qAzV8aXDxh81bQ">
    <mxGraphModel dx="819" dy="1532" grid="1" gridSize="10" guides="1" tooltips="1" connect="1" arrows="1" fold="1" page="1" pageScale="1" pageWidth="850" pageHeight="1100" math="0" shadow="0">
      <root>
        <mxCell id="0" />
        <mxCell id="1" parent="0" />
        <mxCell id="AdQW-e94ORWQJGH5xdEp-85" value="Internet" style="ellipse;shape=cloud;whiteSpace=wrap;html=1;" parent="1" vertex="1">
          <mxGeometry x="98" y="-140" width="655" height="240" as="geometry" />
        </mxCell>
        <mxCell id="7IJPkCUO-aOAU4e22pCj-2" value="Harderwijk" style="sketch=0;points=[[0.5,0,0],[1,0.5,0],[0.5,1,0],[0,0.5,0],[0.145,0.145,0],[0.8555,0.145,0],[0.855,0.8555,0],[0.145,0.855,0]];verticalLabelPosition=bottom;html=1;verticalAlign=top;aspect=fixed;align=center;pointerEvents=1;shape=mxgraph.cisco19.rect;prIcon=router;fillColor=#FAFAFA;strokeColor=#005073;" parent="1" vertex="1">
          <mxGeometry x="170" y="480" width="40" height="40" as="geometry" />
        </mxCell>
        <mxCell id="7IJPkCUO-aOAU4e22pCj-97" style="edgeStyle=orthogonalEdgeStyle;rounded=0;orthogonalLoop=1;jettySize=auto;html=1;exitX=0.5;exitY=1;exitDx=0;exitDy=0;exitPerimeter=0;endArrow=none;endFill=0;entryX=0.5;entryY=0.115;entryDx=0;entryDy=0;entryPerimeter=0;" parent="1" source="7IJPkCUO-aOAU4e22pCj-3" target="7IJPkCUO-aOAU4e22pCj-93" edge="1">
          <mxGeometry relative="1" as="geometry" />
        </mxCell>
        <mxCell id="7IJPkCUO-aOAU4e22pCj-112" style="edgeStyle=orthogonalEdgeStyle;rounded=0;orthogonalLoop=1;jettySize=auto;html=1;exitX=1;exitY=0.5;exitDx=0;exitDy=0;exitPerimeter=0;endArrow=none;endFill=0;entryX=0.092;entryY=0.498;entryDx=0;entryDy=0;entryPerimeter=0;" parent="1" source="7IJPkCUO-aOAU4e22pCj-3" target="7IJPkCUO-aOAU4e22pCj-106" edge="1">
          <mxGeometry relative="1" as="geometry" />
        </mxCell>
        <mxCell id="7IJPkCUO-aOAU4e22pCj-3" value="Nunspeet" style="sketch=0;points=[[0.5,0,0],[1,0.5,0],[0.5,1,0],[0,0.5,0],[0.145,0.145,0],[0.8555,0.145,0],[0.855,0.8555,0],[0.145,0.855,0]];verticalLabelPosition=top;html=1;verticalAlign=bottom;aspect=fixed;align=left;pointerEvents=1;shape=mxgraph.cisco19.rect;prIcon=router;fillColor=#FAFAFA;strokeColor=#005073;labelPosition=right;" parent="1" vertex="1">
          <mxGeometry x="70" y="600" width="40" height="40" as="geometry" />
        </mxCell>
        <mxCell id="7IJPkCUO-aOAU4e22pCj-98" style="edgeStyle=orthogonalEdgeStyle;rounded=0;orthogonalLoop=1;jettySize=auto;html=1;exitX=0.5;exitY=1;exitDx=0;exitDy=0;exitPerimeter=0;endArrow=none;endFill=0;entryX=0.5;entryY=0.114;entryDx=0;entryDy=0;entryPerimeter=0;" parent="1" source="7IJPkCUO-aOAU4e22pCj-4" target="7IJPkCUO-aOAU4e22pCj-94" edge="1">
          <mxGeometry relative="1" as="geometry" />
        </mxCell>
        <mxCell id="7IJPkCUO-aOAU4e22pCj-104" style="edgeStyle=orthogonalEdgeStyle;rounded=0;orthogonalLoop=1;jettySize=auto;html=1;exitX=1;exitY=0.5;exitDx=0;exitDy=0;exitPerimeter=0;endArrow=none;endFill=0;entryX=0.085;entryY=0.5;entryDx=0;entryDy=0;entryPerimeter=0;" parent="1" source="7IJPkCUO-aOAU4e22pCj-4" target="7IJPkCUO-aOAU4e22pCj-103" edge="1">
          <mxGeometry relative="1" as="geometry" />
        </mxCell>
        <mxCell id="7IJPkCUO-aOAU4e22pCj-111" style="edgeStyle=orthogonalEdgeStyle;rounded=0;orthogonalLoop=1;jettySize=auto;html=1;exitX=0;exitY=0.5;exitDx=0;exitDy=0;exitPerimeter=0;endArrow=none;endFill=0;entryX=0.875;entryY=0.5;entryDx=0;entryDy=0;entryPerimeter=0;" parent="1" source="7IJPkCUO-aOAU4e22pCj-4" target="7IJPkCUO-aOAU4e22pCj-106" edge="1">
          <mxGeometry relative="1" as="geometry" />
        </mxCell>
        <mxCell id="7IJPkCUO-aOAU4e22pCj-4" value="Putten" style="sketch=0;points=[[0.5,0,0],[1,0.5,0],[0.5,1,0],[0,0.5,0],[0.145,0.145,0],[0.8555,0.145,0],[0.855,0.8555,0],[0.145,0.855,0]];verticalLabelPosition=top;html=1;verticalAlign=bottom;aspect=fixed;align=right;pointerEvents=1;shape=mxgraph.cisco19.rect;prIcon=router;fillColor=#FAFAFA;strokeColor=#005073;labelPosition=left;" parent="1" vertex="1">
          <mxGeometry x="282.5" y="600" width="40" height="40" as="geometry" />
        </mxCell>
        <mxCell id="7IJPkCUO-aOAU4e22pCj-105" style="edgeStyle=orthogonalEdgeStyle;rounded=0;orthogonalLoop=1;jettySize=auto;html=1;exitX=0;exitY=0.5;exitDx=0;exitDy=0;exitPerimeter=0;endArrow=none;endFill=0;entryX=0.859;entryY=0.5;entryDx=0;entryDy=0;entryPerimeter=0;" parent="1" source="7IJPkCUO-aOAU4e22pCj-119" target="7IJPkCUO-aOAU4e22pCj-103" edge="1">
          <mxGeometry relative="1" as="geometry">
            <mxPoint x="517.5" y="620" as="sourcePoint" />
          </mxGeometry>
        </mxCell>
        <mxCell id="7IJPkCUO-aOAU4e22pCj-91" value="10.201.0.0/16" style="ellipse;shape=cloud;whiteSpace=wrap;html=1;" parent="1" vertex="1">
          <mxGeometry x="32.5" y="360" width="115" height="70" as="geometry" />
        </mxCell>
        <mxCell id="7IJPkCUO-aOAU4e22pCj-93" value="10.202.0.0/16" style="ellipse;shape=cloud;whiteSpace=wrap;html=1;" parent="1" vertex="1">
          <mxGeometry x="32.5" y="680" width="115" height="70" as="geometry" />
        </mxCell>
        <mxCell id="7IJPkCUO-aOAU4e22pCj-94" value="10.203.0.0/16" style="ellipse;shape=cloud;whiteSpace=wrap;html=1;" parent="1" vertex="1">
          <mxGeometry x="245" y="680" width="115" height="70" as="geometry" />
        </mxCell>
        <mxCell id="7IJPkCUO-aOAU4e22pCj-101" style="edgeStyle=orthogonalEdgeStyle;rounded=0;orthogonalLoop=1;jettySize=auto;html=1;exitX=0.315;exitY=0.026;exitDx=0;exitDy=0;exitPerimeter=0;entryX=0.525;entryY=0.953;entryDx=0;entryDy=0;entryPerimeter=0;endArrow=none;endFill=0;" parent="1" source="7IJPkCUO-aOAU4e22pCj-2" target="7IJPkCUO-aOAU4e22pCj-91" edge="1">
          <mxGeometry relative="1" as="geometry" />
        </mxCell>
        <mxCell id="7IJPkCUO-aOAU4e22pCj-103" value="10.0.3.0/30" style="ellipse;shape=cloud;whiteSpace=wrap;html=1;" parent="1" vertex="1">
          <mxGeometry x="390" y="592.5" width="100" height="55" as="geometry" />
        </mxCell>
        <mxCell id="7IJPkCUO-aOAU4e22pCj-106" value="10.0.5.8/30" style="ellipse;shape=cloud;whiteSpace=wrap;html=1;" parent="1" vertex="1">
          <mxGeometry x="135" y="592.5" width="110" height="55" as="geometry" />
        </mxCell>
        <mxCell id="7IJPkCUO-aOAU4e22pCj-107" value="10.0.5.0/30" style="ellipse;shape=cloud;whiteSpace=wrap;html=1;" parent="1" vertex="1">
          <mxGeometry x="255" y="471.25" width="95" height="57.5" as="geometry" />
        </mxCell>
        <mxCell id="7IJPkCUO-aOAU4e22pCj-108" value="10.0.5.4/30" style="ellipse;shape=cloud;whiteSpace=wrap;html=1;" parent="1" vertex="1">
          <mxGeometry x="41.25" y="467.5" width="97.5" height="65" as="geometry" />
        </mxCell>
        <mxCell id="7IJPkCUO-aOAU4e22pCj-109" style="edgeStyle=orthogonalEdgeStyle;rounded=0;orthogonalLoop=1;jettySize=auto;html=1;exitX=0.5;exitY=0;exitDx=0;exitDy=0;exitPerimeter=0;entryX=0.501;entryY=0.929;entryDx=0;entryDy=0;entryPerimeter=0;endArrow=none;endFill=0;" parent="1" source="7IJPkCUO-aOAU4e22pCj-3" target="7IJPkCUO-aOAU4e22pCj-108" edge="1">
          <mxGeometry relative="1" as="geometry" />
        </mxCell>
        <mxCell id="7IJPkCUO-aOAU4e22pCj-110" style="edgeStyle=orthogonalEdgeStyle;rounded=0;orthogonalLoop=1;jettySize=auto;html=1;exitX=0.5;exitY=0;exitDx=0;exitDy=0;exitPerimeter=0;entryX=0.502;entryY=0.929;entryDx=0;entryDy=0;entryPerimeter=0;endArrow=none;endFill=0;" parent="1" source="7IJPkCUO-aOAU4e22pCj-4" target="7IJPkCUO-aOAU4e22pCj-107" edge="1">
          <mxGeometry relative="1" as="geometry" />
        </mxCell>
        <mxCell id="7IJPkCUO-aOAU4e22pCj-113" style="edgeStyle=orthogonalEdgeStyle;rounded=0;orthogonalLoop=1;jettySize=auto;html=1;exitX=1;exitY=0.5;exitDx=0;exitDy=0;exitPerimeter=0;entryX=0.092;entryY=0.503;entryDx=0;entryDy=0;entryPerimeter=0;endArrow=none;endFill=0;" parent="1" source="7IJPkCUO-aOAU4e22pCj-2" target="7IJPkCUO-aOAU4e22pCj-107" edge="1">
          <mxGeometry relative="1" as="geometry" />
        </mxCell>
        <mxCell id="7IJPkCUO-aOAU4e22pCj-114" style="edgeStyle=orthogonalEdgeStyle;rounded=0;orthogonalLoop=1;jettySize=auto;html=1;exitX=0;exitY=0.5;exitDx=0;exitDy=0;exitPerimeter=0;entryX=0.875;entryY=0.5;entryDx=0;entryDy=0;entryPerimeter=0;endArrow=none;endFill=0;" parent="1" source="7IJPkCUO-aOAU4e22pCj-2" target="7IJPkCUO-aOAU4e22pCj-108" edge="1">
          <mxGeometry relative="1" as="geometry" />
        </mxCell>
        <mxCell id="7IJPkCUO-aOAU4e22pCj-116" value="Deventer" style="sketch=0;points=[[0.5,0,0],[1,0.5,0],[0.5,1,0],[0,0.5,0],[0.145,0.145,0],[0.8555,0.145,0],[0.855,0.8555,0],[0.145,0.855,0]];verticalLabelPosition=bottom;html=1;verticalAlign=top;aspect=fixed;align=center;pointerEvents=1;shape=mxgraph.cisco19.rect;prIcon=router;fillColor=#FAFAFA;strokeColor=#005073;" parent="1" vertex="1">
          <mxGeometry x="657.5" y="480" width="40" height="40" as="geometry" />
        </mxCell>
        <mxCell id="7IJPkCUO-aOAU4e22pCj-117" style="edgeStyle=orthogonalEdgeStyle;rounded=0;orthogonalLoop=1;jettySize=auto;html=1;exitX=0.5;exitY=1;exitDx=0;exitDy=0;exitPerimeter=0;endArrow=none;endFill=0;entryX=0.5;entryY=0.115;entryDx=0;entryDy=0;entryPerimeter=0;" parent="1" source="7IJPkCUO-aOAU4e22pCj-119" target="7IJPkCUO-aOAU4e22pCj-125" edge="1">
          <mxGeometry relative="1" as="geometry" />
        </mxCell>
        <mxCell id="7IJPkCUO-aOAU4e22pCj-118" style="edgeStyle=orthogonalEdgeStyle;rounded=0;orthogonalLoop=1;jettySize=auto;html=1;exitX=1;exitY=0.5;exitDx=0;exitDy=0;exitPerimeter=0;endArrow=none;endFill=0;entryX=0.092;entryY=0.498;entryDx=0;entryDy=0;entryPerimeter=0;" parent="1" source="7IJPkCUO-aOAU4e22pCj-119" target="7IJPkCUO-aOAU4e22pCj-128" edge="1">
          <mxGeometry relative="1" as="geometry" />
        </mxCell>
        <mxCell id="7IJPkCUO-aOAU4e22pCj-119" value="Ermelo" style="sketch=0;points=[[0.5,0,0],[1,0.5,0],[0.5,1,0],[0,0.5,0],[0.145,0.145,0],[0.8555,0.145,0],[0.855,0.8555,0],[0.145,0.855,0]];verticalLabelPosition=top;html=1;verticalAlign=bottom;aspect=fixed;align=left;pointerEvents=1;shape=mxgraph.cisco19.rect;prIcon=router;fillColor=#FAFAFA;strokeColor=#005073;labelPosition=right;" parent="1" vertex="1">
          <mxGeometry x="557.5" y="600" width="40" height="40" as="geometry" />
        </mxCell>
        <mxCell id="7IJPkCUO-aOAU4e22pCj-120" style="edgeStyle=orthogonalEdgeStyle;rounded=0;orthogonalLoop=1;jettySize=auto;html=1;exitX=0.5;exitY=1;exitDx=0;exitDy=0;exitPerimeter=0;endArrow=none;endFill=0;entryX=0.5;entryY=0.114;entryDx=0;entryDy=0;entryPerimeter=0;" parent="1" source="7IJPkCUO-aOAU4e22pCj-123" target="7IJPkCUO-aOAU4e22pCj-126" edge="1">
          <mxGeometry relative="1" as="geometry" />
        </mxCell>
        <mxCell id="7IJPkCUO-aOAU4e22pCj-122" style="edgeStyle=orthogonalEdgeStyle;rounded=0;orthogonalLoop=1;jettySize=auto;html=1;exitX=0;exitY=0.5;exitDx=0;exitDy=0;exitPerimeter=0;endArrow=none;endFill=0;entryX=0.875;entryY=0.5;entryDx=0;entryDy=0;entryPerimeter=0;" parent="1" source="7IJPkCUO-aOAU4e22pCj-123" target="7IJPkCUO-aOAU4e22pCj-128" edge="1">
          <mxGeometry relative="1" as="geometry" />
        </mxCell>
        <mxCell id="7IJPkCUO-aOAU4e22pCj-123" value="Epe" style="sketch=0;points=[[0.5,0,0],[1,0.5,0],[0.5,1,0],[0,0.5,0],[0.145,0.145,0],[0.8555,0.145,0],[0.855,0.8555,0],[0.145,0.855,0]];verticalLabelPosition=top;html=1;verticalAlign=bottom;aspect=fixed;align=right;pointerEvents=1;shape=mxgraph.cisco19.rect;prIcon=router;fillColor=#FAFAFA;strokeColor=#005073;labelPosition=left;" parent="1" vertex="1">
          <mxGeometry x="770" y="600" width="40" height="40" as="geometry" />
        </mxCell>
        <mxCell id="7IJPkCUO-aOAU4e22pCj-124" value="10.101.0.0/16" style="ellipse;shape=cloud;whiteSpace=wrap;html=1;" parent="1" vertex="1">
          <mxGeometry x="732.5" y="370" width="115" height="70" as="geometry" />
        </mxCell>
        <mxCell id="7IJPkCUO-aOAU4e22pCj-125" value="10.103.0.0/16" style="ellipse;shape=cloud;whiteSpace=wrap;html=1;" parent="1" vertex="1">
          <mxGeometry x="520" y="680" width="115" height="70" as="geometry" />
        </mxCell>
        <mxCell id="7IJPkCUO-aOAU4e22pCj-126" value="10.102.0.0/16" style="ellipse;shape=cloud;whiteSpace=wrap;html=1;" parent="1" vertex="1">
          <mxGeometry x="732.5" y="680" width="115" height="70" as="geometry" />
        </mxCell>
        <mxCell id="7IJPkCUO-aOAU4e22pCj-127" style="edgeStyle=orthogonalEdgeStyle;rounded=0;orthogonalLoop=1;jettySize=auto;html=1;exitX=0.721;exitY=0.017;exitDx=0;exitDy=0;exitPerimeter=0;entryX=0.525;entryY=0.953;entryDx=0;entryDy=0;entryPerimeter=0;endArrow=none;endFill=0;" parent="1" source="7IJPkCUO-aOAU4e22pCj-116" target="7IJPkCUO-aOAU4e22pCj-124" edge="1">
          <mxGeometry relative="1" as="geometry" />
        </mxCell>
        <mxCell id="7IJPkCUO-aOAU4e22pCj-128" value="10.0.6.8/30" style="ellipse;shape=cloud;whiteSpace=wrap;html=1;" parent="1" vertex="1">
          <mxGeometry x="630" y="592.5" width="102.5" height="55" as="geometry" />
        </mxCell>
        <mxCell id="7IJPkCUO-aOAU4e22pCj-129" value="10.0.6.0/30" style="ellipse;shape=cloud;whiteSpace=wrap;html=1;" parent="1" vertex="1">
          <mxGeometry x="741.25" y="472.5" width="97.5" height="55" as="geometry" />
        </mxCell>
        <mxCell id="7IJPkCUO-aOAU4e22pCj-130" value="10.0.6.4/30" style="ellipse;shape=cloud;whiteSpace=wrap;html=1;" parent="1" vertex="1">
          <mxGeometry x="532.5" y="472.5" width="90" height="55" as="geometry" />
        </mxCell>
        <mxCell id="7IJPkCUO-aOAU4e22pCj-131" style="edgeStyle=orthogonalEdgeStyle;rounded=0;orthogonalLoop=1;jettySize=auto;html=1;exitX=0.5;exitY=0;exitDx=0;exitDy=0;exitPerimeter=0;entryX=0.501;entryY=0.929;entryDx=0;entryDy=0;entryPerimeter=0;endArrow=none;endFill=0;" parent="1" source="7IJPkCUO-aOAU4e22pCj-119" target="7IJPkCUO-aOAU4e22pCj-130" edge="1">
          <mxGeometry relative="1" as="geometry" />
        </mxCell>
        <mxCell id="7IJPkCUO-aOAU4e22pCj-132" style="edgeStyle=orthogonalEdgeStyle;rounded=0;orthogonalLoop=1;jettySize=auto;html=1;exitX=0.5;exitY=0;exitDx=0;exitDy=0;exitPerimeter=0;entryX=0.502;entryY=0.929;entryDx=0;entryDy=0;entryPerimeter=0;endArrow=none;endFill=0;" parent="1" source="7IJPkCUO-aOAU4e22pCj-123" target="7IJPkCUO-aOAU4e22pCj-129" edge="1">
          <mxGeometry relative="1" as="geometry" />
        </mxCell>
        <mxCell id="7IJPkCUO-aOAU4e22pCj-133" style="edgeStyle=orthogonalEdgeStyle;rounded=0;orthogonalLoop=1;jettySize=auto;html=1;exitX=1;exitY=0.5;exitDx=0;exitDy=0;exitPerimeter=0;entryX=0.092;entryY=0.503;entryDx=0;entryDy=0;entryPerimeter=0;endArrow=none;endFill=0;" parent="1" source="7IJPkCUO-aOAU4e22pCj-116" target="7IJPkCUO-aOAU4e22pCj-129" edge="1">
          <mxGeometry relative="1" as="geometry" />
        </mxCell>
        <mxCell id="7IJPkCUO-aOAU4e22pCj-134" style="edgeStyle=orthogonalEdgeStyle;rounded=0;orthogonalLoop=1;jettySize=auto;html=1;exitX=0;exitY=0.5;exitDx=0;exitDy=0;exitPerimeter=0;entryX=0.875;entryY=0.5;entryDx=0;entryDy=0;entryPerimeter=0;endArrow=none;endFill=0;" parent="1" source="7IJPkCUO-aOAU4e22pCj-116" target="7IJPkCUO-aOAU4e22pCj-130" edge="1">
          <mxGeometry relative="1" as="geometry" />
        </mxCell>
        <mxCell id="AdQW-e94ORWQJGH5xdEp-1" value="10.1.3.0/30" style="ellipse;shape=cloud;whiteSpace=wrap;html=1;" parent="1" vertex="1">
          <mxGeometry x="165" y="360" width="90" height="50" as="geometry" />
        </mxCell>
        <mxCell id="AdQW-e94ORWQJGH5xdEp-2" value="10.1.4.0/30" style="ellipse;shape=cloud;whiteSpace=wrap;html=1;" parent="1" vertex="1">
          <mxGeometry x="232.5" y="400" width="90" height="50" as="geometry" />
        </mxCell>
        <mxCell id="AdQW-e94ORWQJGH5xdEp-4" value="192.168.200.0/24" style="ellipse;shape=cloud;whiteSpace=wrap;html=1;" parent="1" vertex="1">
          <mxGeometry x="472.5" y="410" width="150" height="50" as="geometry" />
        </mxCell>
        <mxCell id="AdQW-e94ORWQJGH5xdEp-5" style="edgeStyle=orthogonalEdgeStyle;rounded=0;orthogonalLoop=1;jettySize=auto;html=1;entryX=0.13;entryY=0.77;entryDx=0;entryDy=0;entryPerimeter=0;exitX=0.8555;exitY=0.145;exitDx=0;exitDy=0;exitPerimeter=0;endArrow=none;endFill=0;" parent="1" source="7IJPkCUO-aOAU4e22pCj-2" target="AdQW-e94ORWQJGH5xdEp-2" edge="1">
          <mxGeometry relative="1" as="geometry">
            <Array as="points">
              <mxPoint x="230" y="486" />
              <mxPoint x="230" y="439" />
            </Array>
          </mxGeometry>
        </mxCell>
        <mxCell id="AdQW-e94ORWQJGH5xdEp-6" style="edgeStyle=orthogonalEdgeStyle;rounded=0;orthogonalLoop=1;jettySize=auto;html=1;entryX=0.31;entryY=0.8;entryDx=0;entryDy=0;entryPerimeter=0;endArrow=none;endFill=0;" parent="1" source="7IJPkCUO-aOAU4e22pCj-2" target="AdQW-e94ORWQJGH5xdEp-1" edge="1">
          <mxGeometry relative="1" as="geometry">
            <Array as="points">
              <mxPoint x="190" y="470" />
              <mxPoint x="193" y="470" />
            </Array>
          </mxGeometry>
        </mxCell>
        <mxCell id="AdQW-e94ORWQJGH5xdEp-7" value="192.168.100.0/24" style="ellipse;shape=cloud;whiteSpace=wrap;html=1;" parent="1" vertex="1">
          <mxGeometry x="557.5" y="360" width="150" height="50" as="geometry" />
        </mxCell>
        <mxCell id="AdQW-e94ORWQJGH5xdEp-8" style="edgeStyle=orthogonalEdgeStyle;rounded=0;orthogonalLoop=1;jettySize=auto;html=1;exitX=0.8;exitY=0.8;exitDx=0;exitDy=0;exitPerimeter=0;entryX=0.145;entryY=0.145;entryDx=0;entryDy=0;entryPerimeter=0;endArrow=none;endFill=0;" parent="1" source="AdQW-e94ORWQJGH5xdEp-4" target="7IJPkCUO-aOAU4e22pCj-116" edge="1">
          <mxGeometry relative="1" as="geometry" />
        </mxCell>
        <mxCell id="AdQW-e94ORWQJGH5xdEp-9" style="edgeStyle=orthogonalEdgeStyle;rounded=0;orthogonalLoop=1;jettySize=auto;html=1;exitX=0.8;exitY=0.8;exitDx=0;exitDy=0;exitPerimeter=0;entryX=0.5;entryY=0;entryDx=0;entryDy=0;entryPerimeter=0;endArrow=none;endFill=0;" parent="1" source="AdQW-e94ORWQJGH5xdEp-7" target="7IJPkCUO-aOAU4e22pCj-116" edge="1">
          <mxGeometry relative="1" as="geometry" />
        </mxCell>
        <mxCell id="AdQW-e94ORWQJGH5xdEp-10" value="Azure&lt;br&gt;10.10.0.0/16" style="ellipse;shape=cloud;whiteSpace=wrap;html=1;" parent="1" vertex="1">
          <mxGeometry x="105" y="-90" width="255" height="160" as="geometry" />
        </mxCell>
        <mxCell id="AdQW-e94ORWQJGH5xdEp-11" value="Proxmox&lt;br&gt;192.168.13.0/24" style="ellipse;shape=cloud;whiteSpace=wrap;html=1;" parent="1" vertex="1">
          <mxGeometry x="470" y="-90" width="255" height="160" as="geometry" />
        </mxCell>
        <mxCell id="AdQW-e94ORWQJGH5xdEp-14" value="" style="sketch=0;points=[[0.015,0.015,0],[0.985,0.015,0],[0.985,0.985,0],[0.015,0.985,0],[0.25,0,0],[0.5,0,0],[0.75,0,0],[1,0.25,0],[1,0.5,0],[1,0.75,0],[0.75,1,0],[0.5,1,0],[0.25,1,0],[0,0.75,0],[0,0.5,0],[0,0.25,0]];verticalLabelPosition=bottom;html=1;verticalAlign=top;aspect=fixed;align=center;pointerEvents=1;shape=mxgraph.cisco19.rect;prIcon=firewall;fillColor=#FAFAFA;strokeColor=#005073;" parent="1" vertex="1">
          <mxGeometry x="231.6" y="310" width="38.4" height="30" as="geometry" />
        </mxCell>
        <mxCell id="AdQW-e94ORWQJGH5xdEp-15" value="" style="sketch=0;points=[[0.015,0.015,0],[0.985,0.015,0],[0.985,0.985,0],[0.015,0.985,0],[0.25,0,0],[0.5,0,0],[0.75,0,0],[1,0.25,0],[1,0.5,0],[1,0.75,0],[0.75,1,0],[0.5,1,0],[0.25,1,0],[0,0.75,0],[0,0.5,0],[0,0.25,0]];verticalLabelPosition=bottom;html=1;verticalAlign=top;aspect=fixed;align=center;pointerEvents=1;shape=mxgraph.cisco19.rect;prIcon=firewall;fillColor=#FAFAFA;strokeColor=#005073;" parent="1" vertex="1">
          <mxGeometry x="282.5" y="340" width="38.4" height="30" as="geometry" />
        </mxCell>
        <mxCell id="AdQW-e94ORWQJGH5xdEp-16" value="" style="sketch=0;points=[[0.015,0.015,0],[0.985,0.015,0],[0.985,0.985,0],[0.015,0.985,0],[0.25,0,0],[0.5,0,0],[0.75,0,0],[1,0.25,0],[1,0.5,0],[1,0.75,0],[0.75,1,0],[0.5,1,0],[0.25,1,0],[0,0.75,0],[0,0.5,0],[0,0.25,0]];verticalLabelPosition=bottom;html=1;verticalAlign=top;aspect=fixed;align=center;pointerEvents=1;shape=mxgraph.cisco19.rect;prIcon=firewall;fillColor=#FAFAFA;strokeColor=#005073;" parent="1" vertex="1">
          <mxGeometry x="494.1" y="332.5" width="38.4" height="30" as="geometry" />
        </mxCell>
        <mxCell id="AdQW-e94ORWQJGH5xdEp-17" value="" style="sketch=0;points=[[0.015,0.015,0],[0.985,0.015,0],[0.985,0.985,0],[0.015,0.985,0],[0.25,0,0],[0.5,0,0],[0.75,0,0],[1,0.25,0],[1,0.5,0],[1,0.75,0],[0.75,1,0],[0.5,1,0],[0.25,1,0],[0,0.75,0],[0,0.5,0],[0,0.25,0]];verticalLabelPosition=bottom;html=1;verticalAlign=top;aspect=fixed;align=center;pointerEvents=1;shape=mxgraph.cisco19.rect;prIcon=firewall;fillColor=#FAFAFA;strokeColor=#005073;" parent="1" vertex="1">
          <mxGeometry x="557.5" y="300" width="38.4" height="30" as="geometry" />
        </mxCell>
        <mxCell id="AdQW-e94ORWQJGH5xdEp-19" style="edgeStyle=orthogonalEdgeStyle;rounded=0;orthogonalLoop=1;jettySize=auto;html=1;exitX=0.4;exitY=0.1;exitDx=0;exitDy=0;exitPerimeter=0;entryX=0.5;entryY=1;entryDx=0;entryDy=0;entryPerimeter=0;endArrow=none;endFill=0;" parent="1" source="AdQW-e94ORWQJGH5xdEp-1" target="AdQW-e94ORWQJGH5xdEp-14" edge="1">
          <mxGeometry relative="1" as="geometry" />
        </mxCell>
        <mxCell id="AdQW-e94ORWQJGH5xdEp-20" style="edgeStyle=orthogonalEdgeStyle;rounded=0;orthogonalLoop=1;jettySize=auto;html=1;exitX=0.625;exitY=0.2;exitDx=0;exitDy=0;exitPerimeter=0;entryX=0.5;entryY=1;entryDx=0;entryDy=0;entryPerimeter=0;endArrow=none;endFill=0;" parent="1" source="AdQW-e94ORWQJGH5xdEp-2" target="AdQW-e94ORWQJGH5xdEp-15" edge="1">
          <mxGeometry relative="1" as="geometry" />
        </mxCell>
        <mxCell id="AdQW-e94ORWQJGH5xdEp-21" style="edgeStyle=orthogonalEdgeStyle;rounded=0;orthogonalLoop=1;jettySize=auto;html=1;exitX=0.25;exitY=0.25;exitDx=0;exitDy=0;exitPerimeter=0;entryX=0.5;entryY=1;entryDx=0;entryDy=0;entryPerimeter=0;endArrow=none;endFill=0;" parent="1" source="AdQW-e94ORWQJGH5xdEp-4" target="AdQW-e94ORWQJGH5xdEp-16" edge="1">
          <mxGeometry relative="1" as="geometry" />
        </mxCell>
        <mxCell id="AdQW-e94ORWQJGH5xdEp-22" style="edgeStyle=orthogonalEdgeStyle;rounded=0;orthogonalLoop=1;jettySize=auto;html=1;exitX=0.4;exitY=0.1;exitDx=0;exitDy=0;exitPerimeter=0;entryX=0.5;entryY=1;entryDx=0;entryDy=0;entryPerimeter=0;endArrow=none;endFill=0;" parent="1" source="AdQW-e94ORWQJGH5xdEp-7" target="AdQW-e94ORWQJGH5xdEp-17" edge="1">
          <mxGeometry relative="1" as="geometry" />
        </mxCell>
        <mxCell id="AdQW-e94ORWQJGH5xdEp-24" value="10.69.43.0/30" style="ellipse;shape=cloud;whiteSpace=wrap;html=1;" parent="1" vertex="1">
          <mxGeometry x="185" y="200" width="115" height="60" as="geometry" />
        </mxCell>
        <mxCell id="AdQW-e94ORWQJGH5xdEp-25" value="10.69.42.0/30" style="ellipse;shape=cloud;whiteSpace=wrap;html=1;" parent="1" vertex="1">
          <mxGeometry x="268.3" y="250" width="115" height="60" as="geometry" />
        </mxCell>
        <mxCell id="AdQW-e94ORWQJGH5xdEp-26" value="10.12.1.0/30" style="ellipse;shape=cloud;whiteSpace=wrap;html=1;" parent="1" vertex="1">
          <mxGeometry x="439.7" y="230" width="115" height="60" as="geometry" />
        </mxCell>
        <mxCell id="AdQW-e94ORWQJGH5xdEp-27" value="10.12.2.0/30" style="ellipse;shape=cloud;whiteSpace=wrap;html=1;" parent="1" vertex="1">
          <mxGeometry x="573" y="190" width="115" height="60" as="geometry" />
        </mxCell>
        <mxCell id="AdQW-e94ORWQJGH5xdEp-28" style="edgeStyle=orthogonalEdgeStyle;rounded=0;orthogonalLoop=1;jettySize=auto;html=1;exitX=0.5;exitY=0;exitDx=0;exitDy=0;exitPerimeter=0;entryX=0.55;entryY=0.95;entryDx=0;entryDy=0;entryPerimeter=0;endArrow=none;endFill=0;dashed=1;dashPattern=8 8;" parent="1" source="AdQW-e94ORWQJGH5xdEp-17" target="AdQW-e94ORWQJGH5xdEp-27" edge="1">
          <mxGeometry relative="1" as="geometry" />
        </mxCell>
        <mxCell id="AdQW-e94ORWQJGH5xdEp-29" style="edgeStyle=orthogonalEdgeStyle;rounded=0;orthogonalLoop=1;jettySize=auto;html=1;exitX=0.625;exitY=0.2;exitDx=0;exitDy=0;exitPerimeter=0;entryX=0.75;entryY=1;entryDx=0;entryDy=0;entryPerimeter=0;endArrow=none;endFill=0;dashed=1;dashPattern=8 8;" parent="1" source="AdQW-e94ORWQJGH5xdEp-27" target="AdQW-e94ORWQJGH5xdEp-65" edge="1">
          <mxGeometry relative="1" as="geometry" />
        </mxCell>
        <mxCell id="AdQW-e94ORWQJGH5xdEp-30" style="edgeStyle=orthogonalEdgeStyle;rounded=0;orthogonalLoop=1;jettySize=auto;html=1;exitX=0.5;exitY=0;exitDx=0;exitDy=0;exitPerimeter=0;entryX=0.55;entryY=0.95;entryDx=0;entryDy=0;entryPerimeter=0;endArrow=none;endFill=0;dashed=1;dashPattern=8 8;" parent="1" source="AdQW-e94ORWQJGH5xdEp-16" target="AdQW-e94ORWQJGH5xdEp-26" edge="1">
          <mxGeometry relative="1" as="geometry" />
        </mxCell>
        <mxCell id="AdQW-e94ORWQJGH5xdEp-31" style="edgeStyle=orthogonalEdgeStyle;rounded=0;orthogonalLoop=1;jettySize=auto;html=1;exitX=0.5;exitY=0;exitDx=0;exitDy=0;exitPerimeter=0;entryX=0.508;entryY=0.99;entryDx=0;entryDy=0;entryPerimeter=0;endArrow=none;endFill=0;dashed=1;dashPattern=8 8;" parent="1" source="AdQW-e94ORWQJGH5xdEp-15" target="AdQW-e94ORWQJGH5xdEp-25" edge="1">
          <mxGeometry relative="1" as="geometry">
            <Array as="points">
              <mxPoint x="302" y="330" />
              <mxPoint x="327" y="330" />
            </Array>
          </mxGeometry>
        </mxCell>
        <mxCell id="AdQW-e94ORWQJGH5xdEp-32" style="edgeStyle=orthogonalEdgeStyle;rounded=0;orthogonalLoop=1;jettySize=auto;html=1;exitX=0.5;exitY=0;exitDx=0;exitDy=0;exitPerimeter=0;entryX=0.55;entryY=0.95;entryDx=0;entryDy=0;entryPerimeter=0;endArrow=none;endFill=0;dashed=1;dashPattern=8 8;" parent="1" source="AdQW-e94ORWQJGH5xdEp-14" target="AdQW-e94ORWQJGH5xdEp-24" edge="1">
          <mxGeometry relative="1" as="geometry" />
        </mxCell>
        <mxCell id="AdQW-e94ORWQJGH5xdEp-33" style="edgeStyle=orthogonalEdgeStyle;rounded=0;orthogonalLoop=1;jettySize=auto;html=1;exitX=0.4;exitY=0.1;exitDx=0;exitDy=0;exitPerimeter=0;entryX=0.25;entryY=1;entryDx=0;entryDy=0;entryPerimeter=0;endArrow=none;endFill=0;dashed=1;dashPattern=8 8;" parent="1" source="AdQW-e94ORWQJGH5xdEp-24" target="AdQW-e94ORWQJGH5xdEp-63" edge="1">
          <mxGeometry relative="1" as="geometry" />
        </mxCell>
        <mxCell id="AdQW-e94ORWQJGH5xdEp-34" style="edgeStyle=orthogonalEdgeStyle;rounded=0;orthogonalLoop=1;jettySize=auto;html=1;exitX=0.625;exitY=0.2;exitDx=0;exitDy=0;exitPerimeter=0;entryX=0.416;entryY=0.999;entryDx=0;entryDy=0;entryPerimeter=0;endArrow=none;endFill=0;dashed=1;dashPattern=8 8;" parent="1" source="AdQW-e94ORWQJGH5xdEp-26" target="AdQW-e94ORWQJGH5xdEp-65" edge="1">
          <mxGeometry relative="1" as="geometry">
            <Array as="points">
              <mxPoint x="560" y="242" />
              <mxPoint x="560" y="180" />
              <mxPoint x="605" y="180" />
            </Array>
          </mxGeometry>
        </mxCell>
        <mxCell id="AdQW-e94ORWQJGH5xdEp-35" style="edgeStyle=orthogonalEdgeStyle;rounded=0;orthogonalLoop=1;jettySize=auto;html=1;exitX=0.4;exitY=0.1;exitDx=0;exitDy=0;exitPerimeter=0;entryX=0.75;entryY=1;entryDx=0;entryDy=0;entryPerimeter=0;endArrow=none;endFill=0;dashed=1;dashPattern=8 8;" parent="1" source="AdQW-e94ORWQJGH5xdEp-25" target="AdQW-e94ORWQJGH5xdEp-63" edge="1">
          <mxGeometry relative="1" as="geometry" />
        </mxCell>
        <mxCell id="AdQW-e94ORWQJGH5xdEp-36" value="10.69.44.0/30" style="ellipse;shape=cloud;whiteSpace=wrap;html=1;" parent="1" vertex="1">
          <mxGeometry x="360" y="332.5" width="110" height="45" as="geometry" />
        </mxCell>
        <mxCell id="AdQW-e94ORWQJGH5xdEp-37" style="edgeStyle=orthogonalEdgeStyle;rounded=0;orthogonalLoop=1;jettySize=auto;html=1;exitX=0.16;exitY=0.55;exitDx=0;exitDy=0;exitPerimeter=0;entryX=1;entryY=0.5;entryDx=0;entryDy=0;entryPerimeter=0;endArrow=none;endFill=0;dashed=1;dashPattern=8 8;" parent="1" source="AdQW-e94ORWQJGH5xdEp-36" target="AdQW-e94ORWQJGH5xdEp-15" edge="1">
          <mxGeometry relative="1" as="geometry" />
        </mxCell>
        <mxCell id="AdQW-e94ORWQJGH5xdEp-38" style="edgeStyle=orthogonalEdgeStyle;rounded=0;orthogonalLoop=1;jettySize=auto;html=1;exitX=0.875;exitY=0.5;exitDx=0;exitDy=0;exitPerimeter=0;entryX=0;entryY=0.5;entryDx=0;entryDy=0;entryPerimeter=0;endArrow=none;endFill=0;dashed=1;dashPattern=8 8;" parent="1" source="AdQW-e94ORWQJGH5xdEp-36" target="AdQW-e94ORWQJGH5xdEp-16" edge="1">
          <mxGeometry relative="1" as="geometry" />
        </mxCell>
        <mxCell id="AdQW-e94ORWQJGH5xdEp-39" value=".1" style="text;html=1;align=center;verticalAlign=middle;resizable=0;points=[];autosize=1;strokeColor=none;fillColor=none;" parent="1" vertex="1">
          <mxGeometry x="200" y="493" width="30" height="30" as="geometry" />
        </mxCell>
        <mxCell id="AdQW-e94ORWQJGH5xdEp-40" value=".2" style="text;html=1;align=center;verticalAlign=middle;resizable=0;points=[];autosize=1;strokeColor=none;fillColor=none;" parent="1" vertex="1">
          <mxGeometry x="280" y="580" width="30" height="30" as="geometry" />
        </mxCell>
        <mxCell id="AdQW-e94ORWQJGH5xdEp-41" value=".10" style="text;html=1;align=center;verticalAlign=middle;resizable=0;points=[];autosize=1;strokeColor=none;fillColor=none;" parent="1" vertex="1">
          <mxGeometry x="252" y="598" width="40" height="30" as="geometry" />
        </mxCell>
        <mxCell id="AdQW-e94ORWQJGH5xdEp-42" value=".9" style="text;html=1;align=center;verticalAlign=middle;resizable=0;points=[];autosize=1;strokeColor=none;fillColor=none;" parent="1" vertex="1">
          <mxGeometry x="101" y="597" width="30" height="30" as="geometry" />
        </mxCell>
        <mxCell id="AdQW-e94ORWQJGH5xdEp-43" value=".5" style="text;html=1;align=center;verticalAlign=middle;resizable=0;points=[];autosize=1;strokeColor=none;fillColor=none;" parent="1" vertex="1">
          <mxGeometry x="148" y="492" width="30" height="30" as="geometry" />
        </mxCell>
        <mxCell id="AdQW-e94ORWQJGH5xdEp-44" value=".6" style="text;html=1;align=center;verticalAlign=middle;resizable=0;points=[];autosize=1;strokeColor=none;fillColor=none;" parent="1" vertex="1">
          <mxGeometry x="80" y="579" width="30" height="30" as="geometry" />
        </mxCell>
        <mxCell id="AdQW-e94ORWQJGH5xdEp-45" value=".1" style="text;html=1;align=center;verticalAlign=middle;resizable=0;points=[];autosize=1;strokeColor=none;fillColor=none;" parent="1" vertex="1">
          <mxGeometry x="81" y="630" width="30" height="30" as="geometry" />
        </mxCell>
        <mxCell id="AdQW-e94ORWQJGH5xdEp-47" value=".1" style="text;html=1;align=center;verticalAlign=middle;resizable=0;points=[];autosize=1;strokeColor=none;fillColor=none;" parent="1" vertex="1">
          <mxGeometry x="280" y="631" width="30" height="30" as="geometry" />
        </mxCell>
        <mxCell id="AdQW-e94ORWQJGH5xdEp-48" value=".1" style="text;html=1;align=center;verticalAlign=middle;resizable=0;points=[];autosize=1;strokeColor=none;fillColor=none;" parent="1" vertex="1">
          <mxGeometry x="160" y="462" width="30" height="30" as="geometry" />
        </mxCell>
        <mxCell id="AdQW-e94ORWQJGH5xdEp-49" value=".1" style="text;html=1;align=center;verticalAlign=middle;resizable=0;points=[];autosize=1;strokeColor=none;fillColor=none;" parent="1" vertex="1">
          <mxGeometry x="185" y="450" width="30" height="30" as="geometry" />
        </mxCell>
        <mxCell id="AdQW-e94ORWQJGH5xdEp-50" value=".1" style="text;html=1;align=center;verticalAlign=middle;resizable=0;points=[];autosize=1;strokeColor=none;fillColor=none;" parent="1" vertex="1">
          <mxGeometry x="206" y="464" width="30" height="30" as="geometry" />
        </mxCell>
        <mxCell id="AdQW-e94ORWQJGH5xdEp-51" value=".2" style="text;html=1;align=center;verticalAlign=middle;resizable=0;points=[];autosize=1;strokeColor=none;fillColor=none;" parent="1" vertex="1">
          <mxGeometry x="235.8" y="332.5" width="30" height="30" as="geometry" />
        </mxCell>
        <mxCell id="AdQW-e94ORWQJGH5xdEp-52" value=".2" style="text;html=1;align=center;verticalAlign=middle;resizable=0;points=[];autosize=1;strokeColor=none;fillColor=none;" parent="1" vertex="1">
          <mxGeometry x="292" y="362" width="30" height="30" as="geometry" />
        </mxCell>
        <mxCell id="AdQW-e94ORWQJGH5xdEp-53" value=".2" style="text;html=1;align=center;verticalAlign=middle;resizable=0;points=[];autosize=1;strokeColor=none;fillColor=none;" parent="1" vertex="1">
          <mxGeometry x="311" y="612" width="30" height="30" as="geometry" />
        </mxCell>
        <mxCell id="AdQW-e94ORWQJGH5xdEp-54" value=".1" style="text;html=1;align=center;verticalAlign=middle;resizable=0;points=[];autosize=1;strokeColor=none;fillColor=none;" parent="1" vertex="1">
          <mxGeometry x="536" y="613" width="30" height="30" as="geometry" />
        </mxCell>
        <mxCell id="AdQW-e94ORWQJGH5xdEp-55" value=".1" style="text;html=1;align=center;verticalAlign=middle;resizable=0;points=[];autosize=1;strokeColor=none;fillColor=none;" parent="1" vertex="1">
          <mxGeometry x="568" y="631" width="30" height="30" as="geometry" />
        </mxCell>
        <mxCell id="AdQW-e94ORWQJGH5xdEp-56" value=".1" style="text;html=1;align=center;verticalAlign=middle;resizable=0;points=[];autosize=1;strokeColor=none;fillColor=none;" parent="1" vertex="1">
          <mxGeometry x="768" y="632" width="30" height="30" as="geometry" />
        </mxCell>
        <mxCell id="AdQW-e94ORWQJGH5xdEp-57" value=".1" style="text;html=1;align=center;verticalAlign=middle;resizable=0;points=[];autosize=1;strokeColor=none;fillColor=none;" parent="1" vertex="1">
          <mxGeometry x="687" y="492" width="30" height="30" as="geometry" />
        </mxCell>
        <mxCell id="AdQW-e94ORWQJGH5xdEp-58" value=".2" style="text;html=1;align=center;verticalAlign=middle;resizable=0;points=[];autosize=1;strokeColor=none;fillColor=none;" parent="1" vertex="1">
          <mxGeometry x="642" y="467" width="30" height="30" as="geometry" />
        </mxCell>
        <mxCell id="AdQW-e94ORWQJGH5xdEp-59" value=".3" style="text;html=1;align=center;verticalAlign=middle;resizable=0;points=[];autosize=1;strokeColor=none;fillColor=none;" parent="1" vertex="1">
          <mxGeometry x="657" y="460" width="30" height="30" as="geometry" />
        </mxCell>
        <mxCell id="AdQW-e94ORWQJGH5xdEp-60" value=".1" style="text;html=1;align=center;verticalAlign=middle;resizable=0;points=[];autosize=1;strokeColor=none;fillColor=none;" parent="1" vertex="1">
          <mxGeometry x="678" y="463" width="30" height="30" as="geometry" />
        </mxCell>
        <mxCell id="AdQW-e94ORWQJGH5xdEp-61" value=".1" style="text;html=1;align=center;verticalAlign=middle;resizable=0;points=[];autosize=1;strokeColor=none;fillColor=none;" parent="1" vertex="1">
          <mxGeometry x="504" y="355" width="30" height="30" as="geometry" />
        </mxCell>
        <mxCell id="AdQW-e94ORWQJGH5xdEp-62" value=".1" style="text;html=1;align=center;verticalAlign=middle;resizable=0;points=[];autosize=1;strokeColor=none;fillColor=none;" parent="1" vertex="1">
          <mxGeometry x="553" y="323" width="30" height="30" as="geometry" />
        </mxCell>
        <mxCell id="AdQW-e94ORWQJGH5xdEp-63" value="" style="sketch=0;points=[[0.015,0.015,0],[0.985,0.015,0],[0.985,0.985,0],[0.015,0.985,0],[0.25,0,0],[0.5,0,0],[0.75,0,0],[1,0.25,0],[1,0.5,0],[1,0.75,0],[0.75,1,0],[0.5,1,0],[0.25,1,0],[0,0.75,0],[0,0.5,0],[0,0.25,0]];verticalLabelPosition=bottom;html=1;verticalAlign=top;aspect=fixed;align=center;pointerEvents=1;shape=mxgraph.cisco19.rect;prIcon=firewall;fillColor=#FAFAFA;strokeColor=#005073;" parent="1" vertex="1">
          <mxGeometry x="218.8" y="110.5" width="51.2" height="40" as="geometry" />
        </mxCell>
        <mxCell id="AdQW-e94ORWQJGH5xdEp-64" style="edgeStyle=orthogonalEdgeStyle;rounded=0;orthogonalLoop=1;jettySize=auto;html=1;entryX=0.55;entryY=0.95;entryDx=0;entryDy=0;entryPerimeter=0;endArrow=none;endFill=0;" parent="1" source="AdQW-e94ORWQJGH5xdEp-63" target="AdQW-e94ORWQJGH5xdEp-10" edge="1">
          <mxGeometry relative="1" as="geometry" />
        </mxCell>
        <mxCell id="AdQW-e94ORWQJGH5xdEp-65" value="" style="sketch=0;points=[[0.015,0.015,0],[0.985,0.015,0],[0.985,0.985,0],[0.015,0.985,0],[0.25,0,0],[0.5,0,0],[0.75,0,0],[1,0.25,0],[1,0.5,0],[1,0.75,0],[0.75,1,0],[0.5,1,0],[0.25,1,0],[0,0.75,0],[0,0.5,0],[0,0.25,0]];verticalLabelPosition=bottom;html=1;verticalAlign=top;aspect=fixed;align=center;pointerEvents=1;shape=mxgraph.cisco19.rect;prIcon=firewall;fillColor=#FAFAFA;strokeColor=#005073;" parent="1" vertex="1">
          <mxGeometry x="583.8" y="110" width="51.2" height="40" as="geometry" />
        </mxCell>
        <mxCell id="AdQW-e94ORWQJGH5xdEp-66" style="edgeStyle=orthogonalEdgeStyle;rounded=0;orthogonalLoop=1;jettySize=auto;html=1;exitX=0.5;exitY=0;exitDx=0;exitDy=0;exitPerimeter=0;entryX=0.55;entryY=0.95;entryDx=0;entryDy=0;entryPerimeter=0;endArrow=none;endFill=0;" parent="1" source="AdQW-e94ORWQJGH5xdEp-65" target="AdQW-e94ORWQJGH5xdEp-11" edge="1">
          <mxGeometry relative="1" as="geometry" />
        </mxCell>
        <mxCell id="AdQW-e94ORWQJGH5xdEp-67" value=".6" style="text;html=1;align=center;verticalAlign=middle;resizable=0;points=[];autosize=1;strokeColor=none;fillColor=none;" parent="1" vertex="1">
          <mxGeometry x="637" y="492" width="30" height="30" as="geometry" />
        </mxCell>
        <mxCell id="AdQW-e94ORWQJGH5xdEp-68" value=".5" style="text;html=1;align=center;verticalAlign=middle;resizable=0;points=[];autosize=1;strokeColor=none;fillColor=none;" parent="1" vertex="1">
          <mxGeometry x="569" y="578" width="30" height="30" as="geometry" />
        </mxCell>
        <mxCell id="AdQW-e94ORWQJGH5xdEp-69" value=".2" style="text;html=1;align=center;verticalAlign=middle;resizable=0;points=[];autosize=1;strokeColor=none;fillColor=none;" parent="1" vertex="1">
          <mxGeometry x="768" y="578" width="30" height="30" as="geometry" />
        </mxCell>
        <mxCell id="AdQW-e94ORWQJGH5xdEp-70" value=".9" style="text;html=1;align=center;verticalAlign=middle;resizable=0;points=[];autosize=1;strokeColor=none;fillColor=none;" parent="1" vertex="1">
          <mxGeometry x="588" y="598" width="30" height="30" as="geometry" />
        </mxCell>
        <mxCell id="AdQW-e94ORWQJGH5xdEp-71" value=".10" style="text;html=1;align=center;verticalAlign=middle;resizable=0;points=[];autosize=1;strokeColor=none;fillColor=none;" parent="1" vertex="1">
          <mxGeometry x="740" y="598" width="40" height="30" as="geometry" />
        </mxCell>
        <mxCell id="AdQW-e94ORWQJGH5xdEp-72" value=".1" style="text;html=1;align=center;verticalAlign=middle;resizable=0;points=[];autosize=1;strokeColor=none;fillColor=none;" parent="1" vertex="1">
          <mxGeometry x="227" y="287" width="30" height="30" as="geometry" />
        </mxCell>
        <mxCell id="AdQW-e94ORWQJGH5xdEp-73" value=".1" style="text;html=1;align=center;verticalAlign=middle;resizable=0;points=[];autosize=1;strokeColor=none;fillColor=none;" parent="1" vertex="1">
          <mxGeometry x="280" y="318" width="30" height="30" as="geometry" />
        </mxCell>
        <mxCell id="AdQW-e94ORWQJGH5xdEp-74" value=".1" style="text;html=1;align=center;verticalAlign=middle;resizable=0;points=[];autosize=1;strokeColor=none;fillColor=none;" parent="1" vertex="1">
          <mxGeometry x="505" y="310" width="30" height="30" as="geometry" />
        </mxCell>
        <mxCell id="AdQW-e94ORWQJGH5xdEp-75" value=".1" style="text;html=1;align=center;verticalAlign=middle;resizable=0;points=[];autosize=1;strokeColor=none;fillColor=none;" parent="1" vertex="1">
          <mxGeometry x="569" y="278" width="30" height="30" as="geometry" />
        </mxCell>
        <mxCell id="AdQW-e94ORWQJGH5xdEp-76" value=".1" style="text;html=1;align=center;verticalAlign=middle;resizable=0;points=[];autosize=1;strokeColor=none;fillColor=none;" parent="1" vertex="1">
          <mxGeometry x="473" y="332" width="30" height="30" as="geometry" />
        </mxCell>
        <mxCell id="AdQW-e94ORWQJGH5xdEp-77" value=".2" style="text;html=1;align=center;verticalAlign=middle;resizable=0;points=[];autosize=1;strokeColor=none;fillColor=none;" parent="1" vertex="1">
          <mxGeometry x="313" y="350" width="30" height="30" as="geometry" />
        </mxCell>
        <mxCell id="AdQW-e94ORWQJGH5xdEp-78" value=".2" style="text;html=1;align=center;verticalAlign=middle;resizable=0;points=[];autosize=1;strokeColor=none;fillColor=none;" parent="1" vertex="1">
          <mxGeometry x="615" y="141" width="30" height="30" as="geometry" />
        </mxCell>
        <mxCell id="AdQW-e94ORWQJGH5xdEp-79" value=".2" style="text;html=1;align=center;verticalAlign=middle;resizable=0;points=[];autosize=1;strokeColor=none;fillColor=none;" parent="1" vertex="1">
          <mxGeometry x="579" y="141" width="30" height="30" as="geometry" />
        </mxCell>
        <mxCell id="AdQW-e94ORWQJGH5xdEp-80" value=".2" style="text;html=1;align=center;verticalAlign=middle;resizable=0;points=[];autosize=1;strokeColor=none;fillColor=none;" parent="1" vertex="1">
          <mxGeometry x="250" y="144.5" width="30" height="30" as="geometry" />
        </mxCell>
        <mxCell id="AdQW-e94ORWQJGH5xdEp-81" value=".2" style="text;html=1;align=center;verticalAlign=middle;resizable=0;points=[];autosize=1;strokeColor=none;fillColor=none;" parent="1" vertex="1">
          <mxGeometry x="206" y="144.5" width="30" height="30" as="geometry" />
        </mxCell>
        <mxCell id="AdQW-e94ORWQJGH5xdEp-82" value="10.10.0.5" style="text;html=1;align=center;verticalAlign=middle;resizable=0;points=[];autosize=1;strokeColor=none;fillColor=none;" parent="1" vertex="1">
          <mxGeometry x="236" y="85.5" width="70" height="30" as="geometry" />
        </mxCell>
        <mxCell id="AdQW-e94ORWQJGH5xdEp-83" value="172.16.0.25" style="text;html=1;align=center;verticalAlign=middle;resizable=0;points=[];autosize=1;strokeColor=none;fillColor=none;" parent="1" vertex="1">
          <mxGeometry x="627" y="127" width="90" height="30" as="geometry" />
        </mxCell>
        <mxCell id="AdQW-e94ORWQJGH5xdEp-84" value="192.168.13.1" style="text;html=1;align=center;verticalAlign=middle;resizable=0;points=[];autosize=1;strokeColor=none;fillColor=none;" parent="1" vertex="1">
          <mxGeometry x="599" y="89" width="90" height="30" as="geometry" />
        </mxCell>
        <mxCell id="AdQW-e94ORWQJGH5xdEp-87" value="WLC" style="sketch=0;points=[[0.015,0.015,0],[0.985,0.015,0],[0.985,0.985,0],[0.015,0.985,0],[0.25,0,0],[0.5,0,0],[0.75,0,0],[1,0.25,0],[1,0.5,0],[1,0.75,0],[0.75,1,0],[0.5,1,0],[0.25,1,0],[0,0.75,0],[0,0.5,0],[0,0.25,0]];verticalLabelPosition=top;html=1;verticalAlign=bottom;aspect=fixed;align=center;pointerEvents=1;shape=mxgraph.cisco19.rect;prIcon=dual_mode_access_point;fillColor=#FAFAFA;strokeColor=#005073;labelPosition=center;" parent="1" vertex="1">
          <mxGeometry x="66" y="262.5" width="48" height="37.5" as="geometry" />
        </mxCell>
        <mxCell id="AdQW-e94ORWQJGH5xdEp-88" value="WLC" style="sketch=0;points=[[0.015,0.015,0],[0.985,0.015,0],[0.985,0.985,0],[0.015,0.985,0],[0.25,0,0],[0.5,0,0],[0.75,0,0],[1,0.25,0],[1,0.5,0],[1,0.75,0],[0.75,1,0],[0.5,1,0],[0.25,1,0],[0,0.75,0],[0,0.5,0],[0,0.25,0]];verticalLabelPosition=top;html=1;verticalAlign=bottom;aspect=fixed;align=center;pointerEvents=1;shape=mxgraph.cisco19.rect;prIcon=dual_mode_access_point;fillColor=#FAFAFA;strokeColor=#005073;labelPosition=center;" parent="1" vertex="1">
          <mxGeometry x="768" y="287" width="48" height="37.5" as="geometry" />
        </mxCell>
        <mxCell id="AdQW-e94ORWQJGH5xdEp-89" style="edgeStyle=orthogonalEdgeStyle;rounded=0;orthogonalLoop=1;jettySize=auto;html=1;entryX=0.501;entryY=0.094;entryDx=0;entryDy=0;entryPerimeter=0;endArrow=none;endFill=0;" parent="1" source="AdQW-e94ORWQJGH5xdEp-87" target="7IJPkCUO-aOAU4e22pCj-91" edge="1">
          <mxGeometry relative="1" as="geometry" />
        </mxCell>
        <mxCell id="AdQW-e94ORWQJGH5xdEp-90" value="10.201.20.10" style="text;html=1;align=center;verticalAlign=middle;resizable=0;points=[];autosize=1;strokeColor=none;fillColor=none;" parent="1" vertex="1">
          <mxGeometry x="82" y="293" width="90" height="30" as="geometry" />
        </mxCell>
        <mxCell id="AdQW-e94ORWQJGH5xdEp-91" style="edgeStyle=orthogonalEdgeStyle;rounded=0;orthogonalLoop=1;jettySize=auto;html=1;entryX=0.514;entryY=0.129;entryDx=0;entryDy=0;entryPerimeter=0;endArrow=none;endFill=0;" parent="1" source="AdQW-e94ORWQJGH5xdEp-88" target="7IJPkCUO-aOAU4e22pCj-124" edge="1">
          <mxGeometry relative="1" as="geometry" />
        </mxCell>
        <mxCell id="AdQW-e94ORWQJGH5xdEp-92" value="10.101.20.10" style="text;html=1;align=center;verticalAlign=middle;resizable=0;points=[];autosize=1;strokeColor=none;fillColor=none;" parent="1" vertex="1">
          <mxGeometry x="707" y="319" width="90" height="30" as="geometry" />
        </mxCell>
      </root>
    </mxGraphModel>
  </diagram>
</mxfile>
